<?xml version="1.0" standalone="no"?><!DOCTYPE svg PUBLIC "-//W3C//DTD SVG 1.1//EN" "http://www.w3.org/Graphics/SVG/1.1/DTD/svg11.dtd"><svg t="1597591504993" class="icon" viewBox="0 0 1024 1024" version="1.1" xmlns="http://www.w3.org/2000/svg" p-id="3730" xmlns:xlink="http://www.w3.org/1999/xlink" width="200" height="200"><defs><style type="text/css"></style></defs><path d="M510.6 374.9h271.1c58.4 0 68-59.5 51-94.7C773.2 156.3 657 97.9 510.6 95.8 364.3 97.9 248 156.3 188.5 280.2c-16.9 35.2-7.3 94.7 51 94.7h271.1z" fill="#F1B97B" p-id="3731"></path><path d="M510.7 341.8h169.1c36.4 0 42.4-37.1 31.8-59.1-37.1-77.3-109.6-113.7-200.9-115-91.3 1.3-163.8 37.7-200.9 115-10.6 22-4.6 59.1 31.8 59.1h169.1z" fill="#FFCC66" p-id="3732"></path><path d="M781.8 399.7H239.5c-30.4 0-55.2-12.8-69.9-36.1-16.5-26.3-17.9-64.1-3.5-94.1 5.9-12.4 20.8-17.6 33.1-11.6 12.4 5.9 17.6 20.7 11.6 33.1-7 14.5-6.7 34.4 0.8 46.3 5.5 8.7 14.6 12.9 27.9 12.9h542.3c13.3 0 22.4-4.2 27.9-12.9 7.4-11.8 7.8-31.7 0.8-46.3-66.4-138-199.6-168.8-299.8-170.3-71.6 1.1-133.6 16.2-184.3 44.9-11.9 6.8-27 2.6-33.8-9.3-6.8-11.9-2.6-27 9.3-33.8C360 89.4 430.1 72.2 510.3 71h0.7c163.9 2.3 282.9 71 344.2 198.4 14.4 30 13 67.9-3.5 94.1-14.7 23.4-39.5 36.2-69.9 36.2z m-551-161.2c-5.6 0-11.2-1.9-15.8-5.7-10.6-8.7-12-24.4-3.3-34.9 11.3-13.6 23.7-26.4 37-37.9 10.3-9 26-7.9 35 2.4s7.9 26-2.4 35c-11.2 9.8-21.8 20.6-31.3 32.1-5 5.9-12.1 9-19.2 9z" fill="#231815" p-id="3733"></path><path d="M191.1 517.3h644.5c1.2 0 2.2 1 2.2 2.2v102.7c0 1.2-1 2.2-2.2 2.2H191.1c-1.2 0-2.2-1-2.2-2.2V519.5c0.1-1.3 1-2.2 2.2-2.2z" fill="#A56351" p-id="3734"></path><path d="M280.2 517.3h467.6c1.2 0 2.2 1 2.2 2.2v102.7c0 1.2-1 2.2-2.2 2.2H280.2c-1.2 0-2.2-1-2.2-2.2V519.5c0-1.3 1-2.2 2.2-2.2z" fill="#B1705B" p-id="3735"></path><path d="M787 643H239.8c-38.3 0-69.4-31.1-69.4-69.4v-5.5c0-38.3 31.1-69.4 69.4-69.4H787c38.3 0 69.4 31.1 69.4 69.4v5.5c0 38.2-31.1 69.4-69.4 69.4zM239.8 535.8c-17.8 0-32.2 14.5-32.2 32.2v5.5c0 17.8 14.5 32.2 32.2 32.2H787c17.8 0 32.2-14.5 32.2-32.2V568c0-17.8-14.5-32.2-32.2-32.2H239.8z" fill="#221E1F" p-id="3736"></path><path d="M323.1 561.9c-4.8 0-9.5-1.8-13.1-5.4l-26-26c-7.3-7.3-7.3-19 0-26.3 7.3-7.3 19-7.3 26.3 0l26 26c7.3 7.3 7.3 19 0 26.3-3.7 3.5-8.5 5.4-13.2 5.4z" fill="#221E1F" p-id="3737"></path><path d="M514.4 513.8h-1.5c-25.8-0.5-41.9-11.5-54.7-20.4-12.3-8.5-22.1-15.2-42.9-15.2h-0.8c-19.9 0.2-27.5 6.1-38 14.3-11.6 9.1-27.7 21.5-56.1 21.2h-0.2c-25.8-0.5-41.9-11.5-54.7-20.4-12.3-8.5-22.1-15.2-42.9-15.2h-0.8c-19.9 0.2-27.5 6.1-38 14.3-11.6 9.1-27.4 21.6-56.2 21.2-13.7-0.2-24.6-11.5-24.4-25.2 0.2-13.6 11.3-24.4 24.8-24.4h1.1c10.5 0 14.8-3.4 24.1-10.6 13.3-10.4 31.4-24.7 68.2-25 36.7-0.3 57.3 13.7 72.1 23.9 11.2 7.7 17.1 11.4 27.5 11.7 11.1-0.1 15.3-3.2 24.7-10.6 13.2-10.4 31.4-24.7 68.2-25h1.1c36.3 0 56.4 13.8 71 23.9 11.2 7.7 17.1 11.4 27.5 11.7 11.1 0.1 15.3-3.2 24.7-10.6 13.3-10.4 31.4-24.7 68.2-25h1.1c36.3 0 56.3 13.8 71 23.9 11.2 7.7 17.1 11.4 27.5 11.7 10.9-0.1 15.3-3.2 24.7-10.6 13.3-10.4 31.4-24.7 68.2-25h1.1c36.3 0 56.3 13.8 71 23.9 11.2 7.7 17.1 11.5 27.6 11.7 13.7 0.3 24.6 11.6 24.3 25.3-0.3 13.5-11.3 24.3-24.8 24.3h-0.5c-25.8-0.5-41.9-11.5-54.7-20.4-12.3-8.5-22-15.2-42.9-15.2h-0.8c-19.9 0.2-27.5 6.1-38 14.3-11.6 9.1-27.5 21.5-56.1 21.2h-0.2c-25.8-0.5-41.9-11.5-54.7-20.4-12.3-8.5-22.1-15.2-42.9-15.2h-0.7c-19.9 0.2-27.5 6.1-38 14.3-10.8 9.4-26.4 21.6-54.2 21.6z" fill="#009844" p-id="3738"></path><path d="M514.4 477.4h-1.5c-25.8-0.5-41.9-11.5-54.7-20.4-12.3-8.5-22.1-15.2-42.9-15.2h-0.8c-19.9 0.2-27.5 6.1-38 14.4-11.6 9.1-27.7 21.7-56.1 21.2h-0.2c-25.8-0.5-41.9-11.5-54.7-20.4-12.3-8.5-22.1-15.2-42.9-15.2h-0.8c-19.9 0.2-27.5 6.1-38 14.4-11.6 9.1-27.4 21.5-56.2 21.2-13.7-0.2-24.6-11.5-24.4-25.2 0.2-13.7 11.7-24.6 25.2-24.4 11.2 0.2 15.4-3.2 24.8-10.7 13.3-10.4 31.4-24.7 68.2-24.9h1.1c36.3 0 56.3 13.8 71 23.9 11.2 7.7 17.1 11.5 27.5 11.7 11.1 0 15.3-3.2 24.7-10.6 13.2-10.4 31.4-24.7 68.2-25h1.1c36.3 0 56.4 13.8 71 24 11.2 7.7 17.1 11.4 27.5 11.7 11.1 0.1 15.3-3.2 24.7-10.7 13.3-10.4 31.4-24.7 68.2-24.9h1.1c36.3 0 56.3 13.8 71 23.9 11.2 7.7 17.1 11.5 27.5 11.7 10.9 0 15.3-3.2 24.7-10.6 13.3-10.4 31.4-24.7 68.2-25h1.1c36.3 0 56.3 13.8 71 24 11.2 7.7 17.1 11.4 27.6 11.7 13.7 0.3 24.6 11.6 24.3 25.3-0.3 13.5-11.3 24.3-24.8 24.3h-0.5c-25.8-0.5-41.9-11.5-54.7-20.4-12.3-8.5-22-15.2-42.9-15.2h-0.8c-19.9 0.2-27.5 6.1-38 14.4-11.6 9.1-27.5 21.7-56.1 21.2h-0.2c-25.8-0.5-41.9-11.5-54.7-20.4-12.3-8.5-22.1-15.2-42.9-15.2h-0.7c-19.9 0.2-27.5 6.1-38 14.4-10.8 8.7-26.4 21-54.2 21z" fill="#231815" p-id="3739"></path><path d="M175.9 692.8h669.5v47.6c0 40.7-33.3 74-74 74H249.9c-40.7 0-74-33.3-74-74v-47.6z" fill="#F1B97B" p-id="3740"></path><path d="M175.5 692.6h350.9v25c0 21.3-17.5 38.8-38.8 38.8H214.3c-21.3 0-38.8-17.4-38.8-38.8v-25z" fill="#FFECB1" p-id="3741"></path><path d="M771.4 837.1H249.9c-54.5 0-98.8-44.3-98.8-98.8v-47.6c0-13.7 11.1-24.8 24.8-24.8h669.5c13.7 0 24.8 11.1 24.8 24.8v47.6c0 54.4-44.3 98.8-98.8 98.8zM200.7 715.4v22.8c0 27.1 22.1 49.2 49.2 49.2h521.5c27.1 0 49.2-22.1 49.2-49.2v-22.8H200.7z" fill="#231815" p-id="3742"></path><path d="M726.3 284.9c-4.8 0-9.5-1.8-13.1-5.4L701.6 268c-7.3-7.3-7.3-19 0-26.3 7.3-7.2 19-7.2 26.3 0l11.5 11.5c7.3 7.3 7.3 19 0 26.3-3.6 3.6-8.4 5.4-13.1 5.4zM319.5 284.9c-4.8 0-9.5-1.8-13.1-5.4-7.3-7.3-7.3-19 0-26.3l11.5-11.5c7.3-7.3 19-7.3 26.3 0 7.3 7.3 7.3 19 0 26.3l-11.5 11.5c-3.7 3.6-8.5 5.4-13.2 5.4zM528.6 219.9c-4.8 0-9.5-1.8-13.1-5.4L504 203c-7.3-7.3-7.3-19 0-26.3 7.3-7.2 19-7.2 26.3 0l11.5 11.5c7.3 7.3 7.3 19 0 26.3-3.7 3.6-8.4 5.4-13.2 5.4z" fill="#FFF1BA" p-id="3743"></path><path d="M606 332.4c-4.8 0-9.5-1.8-13.1-5.4-7.3-7.3-7.3-19 0-26.3l11.5-11.5c7.3-7.3 19-7.3 26.3 0 7.3 7.3 7.3 19 0 26.3L619.2 327c-3.7 3.5-8.5 5.4-13.2 5.4z" fill="#FFF1BA" p-id="3744"></path><path d="M439.8 332.4c-4.8 0-9.5-1.8-13.1-5.4l-11.5-11.5c-7.3-7.3-7.3-19 0-26.3 7.3-7.3 19-7.3 26.3 0l11.5 11.5c7.3 7.3 7.3 19 0 26.3-3.7 3.5-8.5 5.4-13.2 5.4z" fill="#FFF1BA" p-id="3745"></path><path d="M297.7 839.1c-4.8 0-9.5-1.8-13.1-5.4l-26-26c-7.3-7.3-7.3-19 0-26.3 7.3-7.3 19-7.3 26.3 0l26 26c7.3 7.3 7.3 19 0 26.3-3.7 3.6-8.5 5.4-13.2 5.4z" fill="#221E1F" p-id="3746"></path><path d="M501 839.1c-4.8 0-9.5-1.8-13.1-5.4l-26-26c-7.3-7.3-7.3-19 0-26.3 7.3-7.3 19-7.3 26.3 0l26 26c7.3 7.3 7.3 19 0 26.3-3.7 3.6-8.4 5.4-13.2 5.4z" fill="#221E1F" p-id="3747"></path></svg>